<svg version="1.1" id="Layer_1" xmlns="http://www.w3.org/2000/svg" x="0" y="0" viewBox="0 0 1200 126" style="enable-background:new 0 0 1200 126" xml:space="preserve"><style>.st0{fill:#a21d3e}</style><path class="st0" d="M89.4 28.4c-6.1-4.1-13.2-6.3-20.5-6.3-9.3-.2-18.2 3.6-24.7 10.2-7.1 7.7-10.7 17.9-10.1 28.4-.8 11.4 2.9 22.8 10.3 31.6 6.4 7 15.5 10.9 25 10.8 6.5.2 12.9-1.6 18.2-5.3C92.4 94.2 96 89 97.5 83H76.4V62.6h56.8c.7 12.1-2 24.2-7.7 35-5.6 8.9-13.6 15.9-23.1 20.3-10.7 5.1-22.3 7.8-34.1 7.7-21.9 0-38.4-5.8-50.4-17.6C6.1 96.1-.4 79.9 0 63.2c-.2-11.7 2.8-23.3 8.7-33.4 5.5-9.5 13.7-17 23.5-21.8C42.1 2.9 53.1.3 64.2.3c13.7-.8 27.2 3.4 37.9 11.9V2.5h21v43.1h-21c-2-7.1-6.5-13.2-12.7-17.2M215.4 113.7c-8.5 8-20 12.3-31.7 12-11.7.3-22.9-3.9-31.5-11.9-8.9-8.4-13.5-20.2-12.9-32.4-.7-12.1 4-23.9 12.9-32.3 8.5-7.9 19.8-12.2 31.5-11.9 11.7-.4 23.1 3.9 31.7 11.9 8.8 8.4 13.4 20.2 12.8 32.3.6 12.2-4.1 23.9-12.8 32.3M196 64.1c-2.9-3.9-7.5-6.1-12.3-6-11 0-16.6 8-16.6 24-.2 5.7 1.1 11.3 4.1 16.3 2.7 4.3 7.5 6.7 12.6 6.4 4.8.2 9.2-2 12.2-5.8 3.5-5.3 5.1-11.7 4.6-18 .2-6-1.4-11.9-4.6-16.9"/><path d="M324.5 28.4c-6.1-4.1-13.2-6.3-20.7-6.3-9.2-.2-18.2 3.6-24.6 10.2-7 7.7-10.6 18-9.9 28.4-.8 11.5 3 22.8 10.4 31.6 6.5 7 15.7 11 25.3 10.8 6.5.2 12.9-1.6 18.2-5.3 4.9-3.6 8.5-8.9 10-14.8h-21.6V62.6h56.7c.7 12.1-2 24.2-7.7 35-5.6 8.9-13.6 15.9-23.1 20.3-10.6 5.1-22.2 7.8-34 7.7-21.9 0-38.7-5.9-50.4-17.6-12-11.8-18.4-28-17.9-44.8C235 51.5 238 40 243.9 30c5.5-9.4 13.7-16.9 23.5-21.7 9.9-5.1 20.8-7.7 31.9-7.7 13.7-.8 27.2 3.4 38 11.9v-10h20.5v43.1h-20.5c-2-7.1-6.6-13.2-12.8-17.2M428.7 123.8V117c-6.7 5-14.8 7.7-23.1 7.7-7.9.2-15.5-2.3-21.7-7.1-6-4.5-9.3-11.7-9.1-19.1.1-7.8 3.7-15.1 9.8-19.9 7-5.7 15.7-8.6 24.7-8.2 6.7.2 13.3 1.7 19.4 4.3v-5.3c.2-4-1.4-7.9-4.4-10.6-3.2-2.9-7.4-4.4-11.7-4.2-5.8 0-11.4 2.4-15.4 6.7l-21.7-3.9c6.3-13.3 19.9-20 40.9-20 6.8-.2 13.5.8 20 2.8 4.5 1.4 8.6 3.8 12 7.1 2.5 2.7 4.4 6 5.4 9.5 1.3 5.5 1.8 11.2 1.6 16.9v30.8h13.8v19.4l-40.5-.1zm0-31.3c-4.5-3.3-9.8-5.4-15.4-6.1-3 0-6 .9-8.4 2.7-2.5 1.7-3.9 4.6-3.9 7.7.1 2.9 1.1 5.6 3.1 7.7 2 2.2 4.8 3.4 7.7 3.3 6.5-.8 12.6-3.9 16.9-8.8v-6.5zM604.2 123.8V74.3c0-8.9-3.8-13.3-11.3-13.3-6.9.2-13.5 2.3-19.4 5.8v37.5h13.9v19.4h-41.1V75c0-9.4-3.6-14.1-10.9-14.1-6.9.3-13.6 2.3-19.6 5.8v37.5h13.8v19.4H475v-19.4h14V58.7h-13.9V39.4H516v7c8.2-5.1 17.6-8 27.3-8.2 9.8-.5 19.3 3.8 25.3 11.6 9.8-7.3 21.8-11.4 34-11.6 6-.2 11.9 1.1 17.1 3.9 4.2 2.3 7.3 6 9 10.4 1.8 6.4 2.6 13.1 2.1 19.7v32.2h13.9v19.4h-40.5zM675.6 87.1c-.2 6.4 2.7 12.4 7.7 16.3 4.1 3 9 4.7 14.1 4.8 7.6-.5 14.6-4.1 19.4-9.9l21 6.7c-8.9 13.8-24.7 21.8-41.1 20.7-12.8.8-25.3-3.4-35-11.8-8.3-8-12.9-19.2-12.5-30.8-.5-12.2 4-24 12.5-32.8 8.7-8.7 20.6-13.5 32.8-13.1 8.9-.2 17.6 2.3 25 7.3 6.7 4.5 12 11 14.8 18.5 2.8 7.7 4.2 15.8 4.2 24l-62.9.1zm30.3-27c-3.3-3.3-7.9-5-12.6-4.7-9.8 0-15.4 5.7-17.3 17h35.3c-.5-4.5-2.5-8.7-5.5-12M789.4 59.5c-5.4-.2-10.5 1.9-14.1 5.8-3.6 4.4-5.6 10.1-5.3 15.7-.5 6.4 1.5 12.7 5.6 17.6 3.6 3.8 8.5 5.8 13.7 5.7 4.3 0 8.5-1.3 12.2-3.7 3.9-2.4 7-5.8 9.2-9.8l21 9.2c-6.8 16.4-23.2 26.6-40.9 25.6-12.9.6-25.4-3.7-35.2-12.1-8.9-8.2-13.7-20-13.2-32.2-.6-12 4.1-23.5 12.9-31.7 15.3-14.2 38.5-15.7 55.5-3.4v-7H829v34.3h-19.1c-3.2-8.5-11.4-14.1-20.5-14M909.8 113.7c-8.5 8-19.9 12.3-31.6 12-11.7.3-22.9-4-31.6-11.9-8.8-8.4-13.5-20.2-12.9-32.4-.6-12.1 4.1-23.9 12.9-32.3 8.5-7.9 19.9-12.2 31.6-11.9 11.7-.3 22.9 3.9 31.5 11.9 8.8 8.4 13.5 20.2 12.9 32.3.5 12.2-4.1 23.9-12.8 32.3m-19.4-49.6c-2.9-3.9-7.5-6.2-12.3-6-11 0-16.6 8-16.6 24-.2 5.8 1.2 11.4 4.2 16.3 2.7 4.2 7.5 6.7 12.5 6.4 4.8.2 9.2-2 12.2-5.8 3.6-5.3 5.2-11.7 4.7-18 .2-6-1.5-11.9-4.7-16.9M974.2 59.5c-5.4-.2-10.5 1.9-14.1 5.8-3.6 4.4-5.5 10.1-5.2 15.7-.5 6.4 1.4 12.7 5.5 17.6 3.6 3.7 8.5 5.8 13.7 5.7 4.3 0 8.6-1.3 12.3-3.7 3.8-2.5 7-5.8 9.2-9.8l20.9 9.2c-6.7 16.4-23.2 26.7-40.9 25.6-12.9.6-25.4-3.7-35.2-12.1-8.9-8.3-13.6-20-13.1-32.2-.6-12 4.1-23.5 12.9-31.7 8.1-7.6 18.8-11.8 30-11.7 9.2 0 18.1 3 25.6 8.3v-7h18.4v34.3H995c-3.4-8.5-11.6-14.1-20.8-14M1119 104.3v19.4h-26L1055.8 79l28.9-23.5h-17.8V39.4h50.9v17.1h-8.5l-24.6 21.1 22.5 26.8 11.8-.1z"/><path d="M1065.9 105.3v18.5h-50.6v-19.4h13.6V22h-13.6V2.5h40.5V105.4l10.1-.1zM1147.5 65.2c4 1.4 8.1 2.5 12.3 3 7.8 1.3 15.5 3 23.1 5.4 4.9 1.7 9.2 4.8 12.4 9 3.2 4.3 4.8 9.5 4.7 14.9.2 7.7-3 15.1-8.9 20.2-7.1 5.6-16 8.3-25 7.7-7.4.8-14.9-1.4-20.7-6.1v4.2h-19.7V94.8h19.7c.2 3.9 2.2 7.4 5.4 9.4 3.9 2.5 8.3 3.7 12.9 3.6 3.6.2 7.2-.6 10.3-2.3 2.2-1.1 3.6-3.4 3.7-5.8 0-2.3-1.3-4.3-3.4-5.1-4.2-1.8-8.7-3-13.3-3.5-10.4-1.1-20.6-4.5-29.5-10.1-5.7-4.1-9-10.7-8.9-17.7-.2-6.9 2.9-13.5 8.2-17.9 6.6-5.1 14.8-7.7 23.1-7.3 7.3 0 14.5 1.4 21.3 4.2v-3h19.2v24.5h-19.2c-1.7-5.9-7.7-8.9-18.5-8.9-7.7 0-11.7 2.1-11.7 6.4 0 1.6.9 3 2.4 3.7"/></svg>